<?xml version="1.0" encoding="UTF-8" standalone="no"?> <svg xmlns:inkscape="http://www.inkscape.org/namespaces/inkscape" xmlns:sodipodi="http://sodipodi.sourceforge.net/DTD/sodipodi-0.dtd" xmlns="http://www.w3.org/2000/svg" xmlns:svg="http://www.w3.org/2000/svg" id="Layer_1" data-name="Layer 1" viewBox="0 0 2175.549 568.888" version="1.1" sodipodi:docname="FFI_logo_venstrestilt_ENG_nettside.svg" inkscape:version="1.3.2 (091e20e, 2023-11-25, custom)"><defs id="defs1"><style id="style1">.cls-1,.cls-8{fill:#fff}.cls-3{fill:#ffd600}.cls-3,.cls-5{stroke:#ef373e}.cls-3,.cls-5,.cls-8{stroke-width:1.5px}.cls-8{stroke-miterlimit:10}.cls-5{fill:none}.cls-7{fill:#006db6}.cls-8{stroke:#006db6}</style></defs><path class="cls-1" d="m497.74611 255.38426-.00293 192.90793h21.43713A21.43229 21.43229 0 0 0 540.61464 426.862V360.50115H612.955V324.33086H562.04878a21.49086 21.49086 0 0 0-2.67932.16681 21.18492 21.18492 0 0 0-5.35846 1.39328 20.61623 20.61623 0 0 0-2.343 1.11926c-.11316.0596-.22326.125-.33636.1875a21.20444 21.20444 0 0 0-2.67926 1.83688c-.265.2114-.524.42868-.7771.65485a21.2676 21.2676 0 0 0-1.90229 1.90228c-.22613.25318-.44348.51215-.65484.77695a21.23242 21.23242 0 0 0-1.83685 2.67935c-.0625.113-.128.22324-.1875.3364a21.17189 21.17189 0 0 0-2.00055 5.02218l-.009.03574a20.3204 20.3204 0 0 0-.50305 2.64349c-.08465.67411-.10791 1.365-.12793 2.05661h-.03875V270.12026h93.584v-36.1702H519.18031A21.43583 21.43583 0 0 0 497.74611 255.38426ZM662.5226 255.38426l-.003 192.90793H683.9568A21.43218 21.43218 0 0 0 705.391 426.862V360.50115h72.34046V324.33086H726.82515a21.4899 21.4899 0 0 0-2.67926.16681 21.18706 21.18706 0 0 0-5.35858 1.39328 20.60183 20.60183 0 0 0-2.34284 1.11926c-.11316.0596-.22339.125-.33636.1875a21.20437 21.20437 0 0 0-2.67932 1.83688c-.2649.2114-.52393.42868-.777.65485a21.2676 21.2676 0 0 0-1.90229 1.90228c-.22625.25318-.4436.51215-.655.77695a21.23266 21.23266 0 0 0-1.83674 2.67935c-.0625.113-.128.22324-.1875.3364a21.17229 21.17229 0 0 0-2.00054 5.02218l-.009.03574a20.3204 20.3204 0 0 0-.50305 2.64349 21.48572 21.48572 0 0 0-.16681 2.67923c0 .10733 0 .21137.00592.3187h-.00592v-75.9635H798.975v-36.1702H683.9568A21.43583 21.43583 0 0 0 662.5226 255.38426ZM828.46986 255.38426l-.003 192.90793h21.4372a21.43216 21.43216 0 0 0 21.4342-21.43014v-192.912h-21.4342A21.43577 21.43577 0 0 0 828.46986 255.38426Z" transform="translate(-27.429 -38.4)" id="path1" style="fill:#000000"></path><path d="M108.71144 179.51288c3.3633 0 7.5405 2.3999 12.0805 6.94l.5313.53171 2.1714-2.16991-.53219-.5323c-5.1958-5.1962-7.5811-9.86521-6.898-13.5024.5479-2.9145 2.9258-4.52051 4.82471-5.355l.5352-.2353-.0977-.57671c-.125-.73829-1.30321-7.5278-1.53321-8.813l-.1392-.7759-.7675.17731c-17.8936 4.1294-31.9903 10.66109-43.09621 19.96871l.373.4449-.6611.09959.0049.03121c.4868 3.1006-.9937 7.04739-4.28231 11.41461l-.392.5205 2.4243 2.42582.53019-.55371c5.0279-5.24961 9.64071-8.02491 13.3409-8.02491 5.34911 0 7.7856 5.74411 7.7856 11.081.0005 5.31637-2.42281 11.03808-7.74271 11.0386-3.7075.00049-8.3349-2.79928-13.38229-8.09671l-.5298-.55609-2.3535 2.35049.2525.4878c2.5883 4.99859 10.1127 15.3565 11.88811 16.67779l.12649.07611a34.08067 34.08067 0 0 0 14.18311 2.73832h.002a38.2578 38.2578 0 0 0 14.667-2.72461l.1757-.104c3.8013-3.01709 9.9917-15.20559 10.96-19.18411l.1006-.41211-.3018-.29831c-.26951-.2666-.936-.93219-1.104-1.10211l-.5303-.5361-.53321.5332c-4.53849 4.5386-8.7158 6.938-12.08 6.93939h-.0025a6.50947 6.50947 0 0 1-5.727-3.56149 15.0395 15.0395 0 0 1-.001-13.7964A6.51307 6.51307 0 0 1 108.71144 179.51288ZM168.82814 177.612c3.5986 0 8.0986 2.8999 13.0141 8.38681l.52841.58981 2.4043-2.40089-.5748-.5298c-7.97409-7.3525-8.88809-12.205-8.2504-14.9809.82419-3.5864 4.4697-5.18559 6.56979-5.81979l.94379-.28472-.42621-.67479c-.08349-1.1914-.54449-8.03909-.79449-11.76269l-.04779-.7051-.70661.00541c-20.95019.1665-37.1533 1.2837-50.9926 3.5146l-.7193.14459.0996.726c.1241.90141.5825 4.10011.9556 6.70071.24319 1.6958.4497 3.13671.50291 3.5166l.06979.501.4903.123c3.73392.9361 6.3017 2.99809 7.04591 5.6573 1.03559 3.7016-1.2559 8.53121-6.6275 13.96581l-.5249.53169 2.1685 2.16649.53081-.5307c4.5395-4.5401 8.71629-6.94 12.0786-6.94 5.08439 0 7.39988 5.4229 7.39988 10.461.00049 5.039-2.3155 10.4624-7.40039 10.46289-3.36181 0-7.5386-2.39991-12.07811-6.93952l-.5357-.53561-.53031.541c-.1665.1699-.83149.8335-1.1015 1.10059l-.30231.29831.1001.4126c1.0591 4.3569 8.7681 16.36911 12.3111 19.1831l.1972.1128a37.33592 37.33592 0 0 0 13.4424 2.5249 41.40647 41.40647 0 0 0 13.92481-2.51859l.1968-.10589c4.76322-3.5654 11.09571-16.7461 12.22071-20.50879l.12689-.4263-.3125-.31589c-.26511-.26852-.96921-.9726-1.29681-1.29691l-.56009-.55419-.52591.587c-4.915 5.4863-9.4155 8.3862-13.0141 8.3862-5.15189 0-7.4986-5.90091-7.4986-11.38379a15.62626 15.62626 0 0 1 1.9541-7.95509A6.44114 6.44114 0 0 1 168.82814 177.612ZM194.28853 149.44458l-.71091-.0074-.04489.7095s-.64069 10.01371-.74811 11.666l-.5488.69091 1.0723.3125c2.1445.6246 5.86709 2.2129 6.71869 5.8365.6524 2.7778-.248 7.6362-8.24021 15.0058l-.57418.5298 2.40429 2.40091.52732-.58991c4.91409-5.4868 9.41409-8.3867 13.01168-8.3867 5.1485 0 7.49421 5.899 7.4961 11.37941 0 5.48489-2.34571 11.38821-7.4961 11.38971h-.00189c-3.59769 0-8.0957-2.8999-13.00979-8.38629l-.5293-.59082-2.166 2.16949.1269.42771c1.0899 3.64651 7.53909 17.00289 12.21881 20.5083l.21289.11129a44.15779 44.15779 0 0 0 14.10541 2.417 47.57457 47.57457 0 0 0 14.44931-2.41309l.13281-.042.10739-.08591c3.80469-3.0191 9.98831-15.208 10.95309-19.18509l.09961-.40381-.291-.2973c-.15039-.15289-.4336-.43661-.68161-.6846l-.9531-.9649-.53518.5357c-4.541 4.53949-8.7168 6.93939-12.08011 6.93939-5.08591 0-7.40232-5.4223-7.40232-10.46039a13.61456 13.61456 0 0 1 1.91791-7.3022 6.40862 6.40862 0 0 1 5.48441-3.16119c3.3613 0 7.53909 2.3999 12.08011 6.94l.5332.53369.5293-.53671c.00192-.00049.68548-.69242 1.09961-1.10541l.52929-.52739-.52542-.53169c-5.30658-5.37261-7.6094-10.16071-6.6543-13.84621.90632-3.4995 4.45511-5.021 6.48832-5.61671l.4707-.1377.0625-.48579c.3418-2.6397.6973-5.0606 1.02151-7.2779q.24019-1.61943.44919-3.0962l.1055-.73391-.7344-.1123C230.59321 150.80829 214.08153 149.65207 194.28853 149.44458ZM301.95064 195.551c-5.0449 5.2959-9.6738 8.0957-13.38282 8.09671h-.00189a6.79735 6.79735 0 0 1-5.97269-3.7251 15.95683 15.95683 0 0 1 .00589-14.64111 6.84477 6.84477 0 0 1 6.01169-3.753c3.7012 0 8.31439 2.77541 13.3418 8.02492l.53119.5542 2.42-2.4267-.39068-.52c-3.2226-4.2867-4.71289-8.17142-4.3125-11.23441l.05081-.38229-.28122-.2632c-10.125-9.4639-24.4668-16.08351-43.84378-20.2368l-.75782-.1626-.13668.76359c-.41211 2.3028-.9473 5.3702-1.4375 8.67881l-.08991.60148.57041.21141c3.0253 1.1221 4.97851 3.0611 5.50189 5.4605.80081 3.6636-1.5723 8.39551-6.8613 13.685l-.5293.5298 2.16989 2.17091.5293-.53021c4.541-4.5401 8.7168-6.94 12.08008-6.94 5.084 0 7.40039 5.42289 7.40039 10.461 0 5.039-2.31641 10.46241-7.40039 10.4628-3.36331 0-7.53909-2.3999-12.08008-6.93939l-.53522-.5357-.53118.5411c-.166.17041-1.1016 1.101-1.1016 1.101l-.30072.2984.1015.41061c.96881 3.9805 7.16022 16.1709 10.961 19.1846l.1835.10791a38.58242 38.58242 0 0 0 14.3321 2.7207h.00189a38.10358 38.10358 0 0 0 14.33209-2.72219l.164-.09223c1.77741-1.32229 9.30081-11.68069 11.88669-16.67779l.25391-.4878-2.3515-2.3525Z" transform="translate(-27.429 -38.4)" style="fill:#ef373e" id="path2"></path><path class="cls-3" d="M195.101 131.303a25.2171 25.2171 0 0 1-14.5893-.0601c-.145-.0479-.272-.07671-.272-.07671l.0151.2242c.06452.8242.34769 4.4926.49271 7.39889l1.55521 23.3496a20.86568 20.86568 0 0 1 11.22021-.0479l1.9668-30.88519ZM258.53071 138.43379c.002-.05909.002-.1181.00391-.17669.00391-.4527-.00189-.89211-.02341-1.315l-.00589-.09469c-.02151-.3931-.05661-.772-.1015-1.1397-.0079-.0561-.0137-.11369-.02151-.1689-.05081-.374-.11719-.73339-.19532-1.08149-.01568-.0665-.0332-.1314-.04888-.19681a9.60586 9.60586 0 0 0-.2949-.99269l-.00778-.0249a8.34783 8.34783 0 0 0-.4082-.9243c-.0293-.05712-.0586-.11431-.08978-.16991a7.23209 7.23209 0 0 0-.52152-.8335c-.01959-.0274-.043-.05279-.0625-.08009a7.15437 7.15437 0 0 0-.62891-.731c-5.4219-5.5302-21.32031-4.4643-60.63281.7769l-.51181 8.05169c57.85752-7.249 52.06452-5.1298 48.20322 24.7701a18.85409 18.85409 0 0 1 11.35351.332c1.57612-10.627 3.56049-18.69141 3.9375-24.5742h0C258.50535 139.36888 258.52293 138.89519 258.53071 138.43379ZM116.76465 138.59148c.0005-.11029-.002-.2246 0-.333.00729-.4038.0269-.792.05369-1.17229.00881-.12109.0186-.2408.0293-.3599.0332-.3755.0737-.74319.1284-1.09469.0069-.045.0157-.08791.023-.1319.0556-.3388.125-.664.2026-.9814.02251-.09181.04491-.1831.06931-.273.0894-.3315.189-.65381.3052-.9619.02-.05321.044-.103.065-.1557.1069-.2686.22509-.5269.354-.7769.0361-.07032.0708-.14211.1089-.21041a7.92456 7.92456 0 0 1 .497-.7915c.0435-.06059.09129-.1182.1367-.1778a7.65916 7.65916 0 0 1 .51131-.6035c.0356-.0386.0644-.082.101-.11959-66.12889.9541-70.62889-.8228-60.17959 38.5552 4.6347-1.0479 9.12891-.775 12.3618.7509-7.729-31.1548-6.4893-29.894 45.247-29.894-.0034-.09719-.0004-.1856-.0034-.28129Q116.76205 139.07419 116.76465 138.59148Z" transform="translate(-27.429 -38.4)" id="path3"></path><path class="cls-3" d="M256.07762 130.45038c.01761.01709.0293.03661.0469.0537a7.4684 7.4684 0 0 1 .62891.731c.0195.0273.04288.0527.0625.08009a7.18744 7.18744 0 0 1 .52152.8335c.03118.0556.06048.11279.08978.1699a8.3488 8.3488 0 0 1 .4082.92431l.00778.0249a9.60586 9.60586 0 0 1 .2949.99269c.01568.06541.0332.13031.04888.19681.0781.3481.14451.7075.19532 1.08149.00781.05521.01361.1128.02151.1689.04489.36771.08.7466.1015 1.1397l.00589.09469c.02152.4229.02732.8628.02341 1.315-.00189.05859-.00189.1176-.00391.17669-.00781.4619-.0234.9346-.05661 1.42681 52.77341 0 53.34961-.7486 45.74219 29.8921 3.2226-1.521 7.69721-1.794 12.31641-.75689C325.92924 132.77168 326.99174 130.45038 256.07762 130.45038ZM180.24074 132.21358c-39.2329-5.0708-55.42679-6.5703-60.9917-.646a7.57278 7.57278 0 0 0-.51131.6035c-.0454.0596-.0932.1167-.1367.1778a7.86706 7.86706 0 0 0-.497.7915c-.0381.0683-.0728.14009-.1089.21041-.1284.25-.2471.5083-.354.7769-.021.0527-.045.10249-.065.1557-.11619.30809-.2158.6304-.3052.9619-.0244.0899-.0468.18118-.06931.273-.0776.3174-.1465.6426-.2026.9814-.0073.044-.01571.0869-.023.1319-.0547.3515-.0952.71919-.1284 1.09469-.0107.1191-.021.2388-.0293.3599-.02679.38029-.0464.76849-.05369 1.17229-.002.10841.0005.22271 0 .333q-.003.48269.0112.9873c.1651 5.9141 1.9888 14.1241 3.81109 25.1597a18.60327 18.60327 0 0 1 11.48969-.80418c-4.22409-31.12891-8.439-31.2031 48.69191-24.7139-.00629-.1406-.01371-.28661-.021-.43111l-.49271-7.39889Z" transform="translate(-27.429 -38.4)" id="path4"></path><path class="cls-3" d="M306.70653,234.36937c2.29492-14.107,12.34179-54.793,15.55661-63.4131-14.0351-6.5947-31.19919-.4239-18.34961,16.65529l-1.4199,1.42279c-29.89059-31.21291-29.89059,38.40381,0,7.03421.58591.58881,1.4199,1.4209,1.4199,1.4209-2.50391,4.83591-10.0195,15.1929-11.66791,16.41992a38.35858,38.35858,0,0,1-28.10159,0c-3.49021-2.769-9.7031-14.69092-10.6973-18.77292,0,0,.94141-.938,1.1094-1.10889,27.67969,27.68061,27.67969-35.78811,0-8.105,0,0-.69531-.69531-1.1094-1.11039,28.57031-28.5698-38.65619-28.5698-10.41989,0-.416.41508-1.10349,1.11039-1.10349,1.11039-27.68161-27.6831-27.68161,35.78559,0,8.105.168.1709.8418.83982,1.10349,1.10889-.99021,4.082-7.2012,16.00391-10.68939,18.77292-9.81061,3.1001-18.34772,3.24219-28.09382,0-4.47848-3.355-10.82229-16.3501-11.94918-20.123.26559-.26709.96869-.9678,1.291-1.2911,29.08789,32.4761,29.08789-39.47409,0-6.997l-1.291-1.28861c33.08007-30.50239-41.687-30.50239-8.60212,0l-1.291,1.28861c-29.0947-32.4771-29.0947,39.47311,0,6.997.3262.3233,1.0264,1.024,1.291,1.2911-1.12789,3.77289-7.46868,16.768-11.95111,20.123a37.65739,37.65739,0,0,1-26.8457,0c-3.4864-2.769-11.0567-14.69092-12.0479-18.77292.2715-.2691.94141-.938,1.10941-1.10889,27.67869,27.68061,27.67869-35.78811,0-8.105,0,0-.6924-.69531-1.10941-1.11039,28.23729-28.5698-38.98529-28.5698-10.41409,0-.41789.41508-1.1113,1.11039-1.1113,1.11039-27.6806-27.6831-27.6806,35.78559,0,8.105.169.1709.8389.83982,1.1113,1.10889-.9951,4.082-7.2099,16.00391-10.6992,18.77292-8.99221,3.77689-21.22071,3.3252-28.2392,0-1.6485-1.227-9.1651-11.584-11.6709-16.41992,0,0,.834-.83209,1.4218-1.4209,29.8916,31.3696,29.8916-38.2471,0-7.03421l-1.4218-1.42279c12.85541-17.07919-4.3096-23.25-18.3457-16.65531,3.2119,8.62011,13.2617,49.3061,15.55659,63.415Z" transform="translate(-27.429 -38.4)" id="path5"></path><circle cx="160.481" cy="69.704" r="24.438" style="stroke-miterlimit:10;stroke:#ef373e;fill:#ffd600" id="circle5"></circle><path class="cls-3" d="M164.53322,101.782h17.46539V65.02381H168.4229V53.55918h13.57775s-.006-1.29422-.00207-1.29029V39.15006h11.841V53.5585h13.534v11.461h-13.562V101.781h17.58761" transform="translate(-27.429 -38.4)" id="path6"></path><path class="cls-5" d="M136.783 75.223 184.208 75.223" id="path7"></path><circle class="cls-5" cx="160.481" cy="69.704" r="24.438" id="circle7"></circle><path d="M28.18014,234.3709h319.3814c-.36332,156.644-16.91211,275.00338-159.646,372.0112C44.45064,509.37428,28.50534,391.39971,28.18014,234.3709Z" transform="translate(-27.429 -38.4)" style="stroke:#006db6;fill:#006db6;stroke-width:1.5px" id="path8"></path><path class="cls-1" d="M187.69093,509.669c-2.27077,0-7.74973-.35351-16.28483-1.05176l-.65508-.05371-.12286-51.96679-.089-38.80762,1.07326,1.24316c5.28749.29981,10.75162.45215,16.24588.45215,5.57262,0,11.123-.15722,16.49812-.46875l.752-.043-.01948,11.78321-.15951,77.75387-.65184.05664C195.80274,509.30861,190.37756,509.669,187.69093,509.669Z" transform="translate(-27.429 -38.4)" id="path9"></path><path class="cls-7" d="M170.39085,419.7347c.01007.01.02973.02.03931.03q8.45352.465,17.44635.47,8.9691,0,17.41708-.47l-.01965,10.99-.03931,16.19-.01965,9.61-.10785,51.26471c-7.21622.6-14.14767,1.1-17.407,1.1-2.77854,0-9.7493-.48-17.093-1.05l-.12753-51.27472-.01966-9.62-.0393-16.27-.02973-10.97m-1.50979-3.61521.00979,3.61927.02973,10.97.0393,16.26959.01966,9.61938.12753,51.2754.00345,1.38458,1.38049.10718c9.14154.70959,14.77069,1.0545,17.20908,1.0545,2.85263,0,8.58716-.36145,17.53131-1.10516l1.37283-.11414.0029-1.37756.10785-51.26471.01965-9.61011.03931-16.18945.01965-10.99094.00284-1.58762-1.58523.08719c-5.64264.3104-11.47489.46778-17.33469.46778-5.68509,0-11.33533-.14716-16.8042-.4375l-2.19125-2.17771Z" transform="translate(-27.429 -38.4)" id="path10"></path><path class="cls-1" d="M258.2856,477.16213c-9.66309,0-21.10645-2.9336-34.01172-8.72071A208.18916,208.18916,0,0,1,187.851,446.90334a208.213,208.213,0,0,1-36.42334,21.53808c-12.89991,5.78711-24.34131,8.72071-34.00635,8.72071-9.08594,0-16.28955-2.59864-21.41113-7.72461-10.41065-10.40137-10.27979-29.542.34961-53.94629-24.76954-9.74512-38.39893-23.18555-38.39893-37.89453,0-14.69629,13.62256-28.13965,38.37939-37.90381-10.63525-24.41406-10.77-43.56592-.35986-53.97608,5.12158-5.12109,12.32471-7.71777,21.41016-7.71777,9.66552,0,21.10693,2.93164,34.00683,8.71338a189.46582,189.46582,0,0,1,23.565,12.8208l.4331.27441-.09814.50293c-.61036,3.1294-1.1709,6.24756-1.666,9.26758l-.19971,1.36231-.98291-.647c-21.0791-13.86767-41.106-21.8208-54.94531-21.8208-6.25537,0-11,1.57276-14.102,4.67481-7.14063,7.14013-6.125,22.813,2.772,43.0581,17.27-5.53369,38.03516-9.21338,60.124-10.65039,1.458-1.28174,2.92724-2.54638,4.3706-3.76172l1.44239-1.21435-.21436,1.87353c-.0791.68946-.14795,1.36914-.19726,2.03955-.27686,3.28711-.51514,6.78858-.709,10.415.001.01221-.002.06446-.00586.1167v.33447l-.25146.27686c-4.24414,3.813-8.52735,7.87793-12.73145,12.082a313.91718,313.91718,0,0,0-26.42334,29.8794,313.0364,313.0364,0,0,0,26.39356,29.8496c4.146,4.14649,8.37158,8.16114,12.56445,11.93653,5.64307.30078,11.47363.4541,17.33545.4541,5.78955,0,11.60986-.14941,17.3042-.44531,4.31054-3.89942,8.53711-7.917,12.56543-11.94532a311.7034,311.7034,0,0,0,26.38379-29.8496,313.92784,313.92784,0,0,0-26.42383-29.8794c-4.14453-4.14453-8.39746-8.18262-12.6416-12.00244l-.248-.22363v-.334l-.00977-.26025c-.21679-3.82227-.45214-7.23731-.71777-10.397-.0498-.64892-.10937-1.31152-.17871-1.97509l-.19336-1.84522,1.42188,1.19238q2.14452,1.79956,4.2705,3.67286c22.08594,1.43652,42.85254,5.11572,60.125,10.65088,8.7627-19.94727,9.80664-36.0127,2.77149-43.04834-3.10156-3.10157-7.84571-4.67432-14.09961-4.67432-13.81934,0-33.81836,7.93506-54.86817,21.771l-.96679.63525-.18555-1.1416.71094-.291-.74024.1211c-.46386-2.83789-1.01171-5.87891-1.67675-9.29786l-.09766-.50244.43262-.27392a187.46978,187.46978,0,0,1,23.49511-12.78076c12.90528-5.78223,24.34864-8.71387,34.01172-8.71387,9.084,0,16.28907,2.59668,21.415,7.71728,10.39844,10.40918,10.26367,29.55664-.35937,53.9668,24.77539,9.75928,38.40918,23.20654,38.40918,37.91357,0,14.71973-13.63965,28.16407-38.42871,37.90528,10.61718,24.39941,10.748,43.53613.34863,53.93555C274.57466,474.56349,267.36958,477.16213,258.2856,477.16213Zm-61.72071-36.84375c23.68653,16.76855,46.10059,26.36816,61.60938,26.36816,6.25488,0,10.99805-1.57129,14.09668-4.66992,7.13379-7.13379,6.125-22.791-2.75293-43.01856-17.27149,5.53418-38.03418,9.21387-60.11426,10.65137C205.16939,433.3672,200.85493,436.95217,196.56489,440.31838ZM106.19334,418.9883c-8.88867,20.22851-9.90088,35.88965-2.76221,43.02832,3.09913,3.09863,7.8418,4.66992,14.0962,4.66992,15.50927,0,37.92382-9.59961,61.60986-26.36816-4.29834-3.374-8.61572-6.96192-12.84961-10.67871C144.20894,428.20119,123.45357,424.52248,106.19334,418.9883Zm77.14453,11.31836c1.47217,1.18945,2.96387,2.36719,4.51319,3.56347,1.59716-1.23242,3.09179-2.41113,4.521-3.56347-1.41845.02051-2.90674.03027-4.501.03027-1.606,0-3.105-.00976-4.53321-.03027Zm67.23389-43.98633A324.08993,324.08993,0,0,1,225.1616,414.877q-1.604,1.60542-3.23144,3.19043a227.75287,227.75287,0,0,0,43.01172-8.52734,206.38,206.38,0,0,0-14.37015-23.21973ZM110.769,409.52931a226.65332,226.65332,0,0,0,42.99609,8.52832c-1.04492-1.01562-2.124-2.08007-3.22461-3.18066a324.09212,324.09212,0,0,1-25.41064-28.55664,204.11708,204.11708,0,0,0-14.36087,23.209ZM257.1577,377.60744A221.97235,221.97235,0,0,1,274.88035,406.084c20.30176-7.91113,32.40039-18.53613,32.40039-28.4873,0-9.95313-12.09472-20.57715-32.39062-28.48633a223.04147,223.04147,0,0,1-17.73245,28.49707ZM100.83052,349.1299c-20.5835,8.00879-32.36963,18.36523-32.36963,28.4668,0,10.0957,11.79,20.45605,32.37988,28.47656a221.52009,221.52009,0,0,1,17.70264-28.46582A221.99914,221.99914,0,0,1,100.83052,349.1299ZM221.93013,337.127q1.60839,1.5666,3.20117,3.15967a323.24929,323.24929,0,0,1,25.4502,28.59717,207.66433,207.66433,0,0,0,14.3789-23.2295A227.64826,227.64826,0,0,0,221.93013,337.127Zm-111.17969,8.54639a208.10853,208.10853,0,0,0,14.36963,23.21045,323.44508,323.44508,0,0,1,25.46045-28.59717q1.58935-1.5894,3.20068-3.15967A226.91,226.91,0,0,0,110.75044,345.67336Z" transform="translate(-27.429 -38.4)" id="path11"></path><path class="cls-7" d="M258.31624,278.74889c8.78286,0,15.87857,2.49689,20.88458,7.49811,10.28,10.29,9.98,29.38-.83,53.85,24.95,9.67,38.66,22.96,38.66,37.5s-13.72,27.84-38.68,37.49c10.8,24.45,11.09,43.55.82,53.82-5.00726,5.00726-12.09958,7.50555-20.88553,7.50555-9.44467,0-20.846-2.88952-33.70444-8.65557a209.00666,209.00666,0,0,1-36.73-21.7801,209.00505,209.00505,0,0,1-36.73,21.78c-12.85475,5.76679-24.25411,8.65558-33.69943,8.65558-8.78441,0-15.87873-2.499-20.88054-7.50555-10.28-10.27-9.99-29.38.82-53.83-24.93-9.65-38.65-22.95-38.65-37.48,0-14.54,13.71-27.82,38.63-37.49-10.82-24.47-11.12-43.57-.83-53.86,5.00183-5.00183,12.09517-7.49823,20.87958-7.4981,9.44533.00012,20.84569,2.88656,33.70042,8.64813a188.46909,188.46909,0,0,1,23.47,12.77c-.61,3.13-1.17,6.24-1.67,9.29l-.03.21c-22.19787-14.60355-41.84558-21.94446-55.35775-21.94446-6.36245,0-11.367,1.62921-14.63236,4.89453-7.38,7.38-6.39,23.67,2.89,44.51,17.52-5.69,38.43-9.4,60.84-10.84q2.26493-1.995,4.55-3.92c-.08.7-.15,1.39-.2,2.07-.3,3.56-.53,7.06-.71,10.43,0,.07-.01.14-.01.21q-6.36,5.715-12.76,12.11a313.49656,313.49656,0,0,0-26.84,30.41,312.82577,312.82577,0,0,0,26.81,30.38q6.42,6.42013,12.79,12.14,8.55.465,17.64.47,9.06006,0,17.61-.46,6.36007-5.745,12.79-12.15a311.30744,311.30744,0,0,0,26.8-30.38,313.49511,313.49511,0,0,0-26.84-30.41q-6.36-6.36-12.67-12.03c0-.09006-.01-.17-.01-.26-.19-3.38-.42-6.89-.72-10.46-.05-.65-.11-1.32-.18-1.99q2.235,1.875,4.45,3.83c22.42,1.44,43.32,5.15,60.84,10.84,9.28-20.83,10.27-37.12,2.89-44.5-3.26584-3.26584-8.26541-4.89383-14.63018-4.89383-13.49445,0-33.11438,7.32526-55.27985,21.89383-.01-.06-.02-.11-.03-.17-.5-3.06-1.07-6.18-1.68-9.32a186.61983,186.61983,0,0,1,23.4-12.73c12.86145-5.76227,24.25943-8.64813,33.70545-8.64813m-7.70542,91.38824a208.29788,208.29788,0,0,0,15.43006-24.93,230.48892,230.48892,0,0,0-46.19-9.05c1.59,1.53,3.18,3.09,4.75,4.65994a322.01488,322.01488,0,0,1,26.01,29.32m-125.52,0a322.16216,322.16216,0,0,1,26.02-29.32c1.57-1.57,3.16-3.13,4.75-4.65994a229.7038,229.7038,0,0,0-46.19,9.07,208.48812,208.48812,0,0,0,15.42,24.91m149.43,36.89c21.29-8.17,33.51-18.99,33.51-29.43s-12.21006-21.26-33.5-29.43a222.13588,222.13588,0,0,1-18.3,29.44,221.22436,221.22436,0,0,1,18.29,29.42m-173.32-.01a220.51762,220.51762,0,0,1,18.27-29.41,220.708,220.708,0,0,1-18.28-29.42c-21.28,8.16-33.48,18.97-33.48,29.41,0,10.43994,12.21,21.25,33.49,29.42m118.65,12.02a230.4137,230.4137,0,0,0,46.17-9.05,206.79782,206.79782,0,0,0-15.42-24.92,322.5822,322.5822,0,0,1-25.97,29.28006c-1.58,1.58-3.18,3.15-4.78,4.69m-64-.01c-1.6-1.53-3.2-3.1-4.78-4.68a322.57259,322.57259,0,0,1-25.97-29.28006,204.53439,204.53439,0,0,0-15.41,24.91,229.46689,229.46689,0,0,0,46.16,9.05m-38.32327,48.4101c15.01434,0,37.61435-9.06122,62.86319-27.09009q-6.93-5.4-13.8-11.44c-22.4-1.44-43.3-5.15-60.81-10.84006-9.27,20.82-10.26,37.1-2.88,44.48,3.26244,3.26245,8.26329,4.89014,14.6268,4.89014m140.64639,0c6.36164,0,11.365-1.62836,14.6268-4.89014,7.38-7.38,6.39-23.65-2.87-44.47-17.52,5.69-38.42,9.4-60.83,10.84q-6.855,6.03-13.79,11.43c25.251,18.0304,47.84888,27.09009,62.86319,27.09009m-70.30322-37.85q-3.36,0-6.69-.07,3.36,2.76,6.67,5.3,3.315-2.55,6.68-5.3-3.31509.07493-6.66.07m70.44544-152.33816c-9.76969,0-21.31617,2.95373-34.31873,8.77923a188.27461,188.27461,0,0,0-23.59024,12.83225l-.864.54819.19513,1.00445c.66272,3.41165,1.20968,6.44583,1.67212,9.27591l.01937.11047.0112.06336.3776,2.27362,1.926-1.26587c20.931-13.7572,40.77942-21.64734,54.456-21.64734,6.04834,0,10.6138,1.49872,13.56958,4.45447,6.73755,6.73758,5.73,22.232-2.65894,41.59839-17.13342-5.4177-37.62768-9.02872-59.40448-10.46277-1.50247-1.316-2.84448-2.46893-4.09186-3.51541l-2.84137-2.38367.38541,3.68875c.06857.65622.12732,1.31247.1763,1.9491.26721,3.18079.50119,6.57837.71606,10.39624.00107.05688.00385.11185.007.16681v.66791l.49887.48886c4.237,3.81427,8.48056,7.8435,12.61292,11.97583a313.71691,313.71691,0,0,1,26.00595,29.35006,311.565,311.565,0,0,1-25.96591,29.31858c-3.95468,3.95468-8.10391,7.90228-12.34,11.74032-5.59445.28565-11.31036.43039-16.99942.43039-5.76,0-11.48672-.14785-17.03036-.43957-4.11448-3.71109-8.26371-7.65583-12.339-11.73111a313.04454,313.04454,0,0,1-25.9755-29.31922,313.752,313.752,0,0,1,26.00556-29.34948c4.19485-4.19489,8.46835-8.25077,12.70187-12.0549l.49741-.447v-.66867c.00467-.05166.008-.10437.00933-.15731.19291-3.607.43021-7.09128.70542-10.35675.04477-.60782.10651-1.24634.19559-2.02558l.4284-3.74716-2.88492,2.42941c-1.38421,1.16571-2.79205,2.37631-4.1907,3.60367-21.779,1.43482-42.27208,5.04566-59.40331,10.46268-8.388-19.37357-9.3957-34.87177-2.65916-41.60834,2.95628-2.95624,7.52246-4.45517,13.57172-4.45517,13.69682,0,33.57342,7.90848,54.5332,21.69766l1.97485,1.29923.33448-2.34012.03-.20935c.48676-2.96735,1.04593-6.07806,1.65747-9.216l.196-1.00589-.86578-.54828a190.16137,190.16137,0,0,0-23.65848-12.87128c-12.99767-5.82565-24.54253-8.77945-34.31443-8.77957-9.2915-.00012-16.67324,2.67041-21.94024,7.93747-10.54138,10.54132-10.56616,29.71481-.10506,54.09524-24.60692,9.86209-38.13431,23.43467-38.13431,38.31543,0,14.8935,13.53377,28.46268,38.15383,38.30658-10.45375,24.36853-10.42588,43.5329.116,54.06458,5.26608,5.27118,12.64835,7.94439,21.94067,7.94439,9.77161,0,21.31629-2.95636,34.31339-8.787A208.32446,208.32446,0,0,0,187.85084,447.829a208.32858,208.32858,0,0,0,36.11649,21.29681c13.002,5.83044,24.54825,8.78674,34.318,8.78674,9.29056,0,16.67432-2.673,21.94617-7.94488,10.5296-10.52954,10.55734-29.68952.11532-54.05329,24.639-9.84,38.18409-23.41323,38.18409-38.31735,0-14.89236-13.53571-28.46783-38.16458-38.32617,10.44937-24.3757,10.42468-43.5448-.10425-54.084-5.27268-5.26761-12.656-7.938-21.94577-7.938Zm-7.76819,90.382a324.73617,324.73617,0,0,0-24.88654-27.87452q-.82287-.82291-1.65469-1.64364a225.63846,225.63846,0,0,1,39.86752,7.99133,207.24562,207.24562,0,0,1-13.32632,21.5268Zm-138.71134-21.508a224.879,224.879,0,0,1,39.86791-8.01q-.83068.81963-1.65447,1.64343a324.95643,324.95643,0,0,0-24.89628,27.87424,207.4924,207.4924,0,0,1-13.31716-21.50772Zm146.24677,31.4837a224.21972,224.21972,0,0,0,17.16229-27.55111c19.618,7.76309,31.28507,18.01022,31.28507,27.54159,0,9.52957-11.66883,19.776-31.29505,27.54154A223.31773,223.31773,0,0,0,258.08348,377.60658Zm-157.598,27.52161c-19.61207-7.7641-31.27464-18.00711-31.27464-27.53113,0-9.52963,11.65825-19.76889,31.26391-27.52151a222.97431,222.97431,0,0,0,17.14341,27.53107,222.5628,222.5628,0,0,0-17.13269,27.52157Zm11.36838,3.95123a203.51781,203.51781,0,0,1,13.30891-21.50692,325.534,325.534,0,0,0,24.84682,27.83465q.84768.84765,1.67679,1.6651A224.662,224.662,0,0,1,111.85385,409.07942Zm112.15294,8.00165q.84558-.83427,1.68466-1.67334a325.53331,325.53331,0,0,0,24.84677-27.83438,205.82359,205.82359,0,0,1,13.31772,21.51618A225.64331,225.64331,0,0,1,224.00679,417.08107Zm-106.47914,48.856c-6.04857,0-10.61289-1.4975-13.56613-4.45074-6.734-6.734-5.72939-22.22223,2.64906-41.5781,17.12157,5.417,37.60388,9.02762,59.37372,10.46243,3.91769,3.43482,7.911,6.76215,11.89813,9.91431C154.62614,456.60732,132.7065,465.93709,117.52765,465.93709Zm92.17961-35.55637c21.77133-1.43432,42.26071-5.045,59.39316-10.46246,8.36865,19.3541,9.36953,34.83823,2.63974,41.56809-2.95328,2.9533-7.51761,4.45074-13.56614,4.45074-15.17889,0-37.09811-9.32947-60.35437-25.65179C201.79555,437.14342,205.785,433.81957,209.70726,430.38072Zm-21.85611,2.541q-1.18222-.91736-2.34763-1.8425c.76743.00525,1.55484.00784,2.36728.00784.80017,0,1.57623-.00253,2.33249-.00766Q189.05989,431.98494,187.85115,432.92171Z" transform="translate(-27.429 -38.4)" id="path12"></path><path class="cls-1" d="M63.47944,390.72853A13.14088,13.14088,0,1,1,72.771,386.8799,13.14088,13.14088,0,0,1,63.47944,390.72853Z" transform="translate(-27.429 -38.4)" id="path13"></path><path class="cls-7" d="M63.47911,365.19774a12.39051,12.39051,0,1,1-8.76142,3.62909,12.3905,12.3905,0,0,1,8.76142-3.62909m0-1.5a13.89056,13.89056,0,1,0,9.82208,4.06845A13.89059,13.89059,0,0,0,63.47911,363.69774Z" transform="translate(-27.429 -38.4)" id="path14"></path><path class="cls-1" d="M99.73091,478.79982a13.14006,13.14006,0,1,1,9.2915-3.84863A13.14006,13.14006,0,0,1,99.73091,478.79982Z" transform="translate(-27.429 -38.4)" id="path15"></path><path class="cls-7" d="M99.73066,453.26888a12.39051,12.39051,0,1,1-8.76141,3.62909,12.39051,12.39051,0,0,1,8.76141-3.62909m0-1.5a13.89056,13.89056,0,1,0,9.82209,4.06842A13.89055,13.89055,0,0,0,99.73066,451.76888Z" transform="translate(-27.429 -38.4)" id="path16"></path><path class="cls-1" d="M275.85786,478.79982a13.14,13.14,0,1,1,9.292-3.84863A13.13994,13.13994,0,0,1,275.85786,478.79982Z" transform="translate(-27.429 -38.4)" id="path17"></path><path class="cls-7" d="M275.858,453.26888a12.39054,12.39054,0,1,1-8.76141,3.62909,12.39049,12.39049,0,0,1,8.76141-3.62909m0-1.5a13.89056,13.89056,0,1,0,9.82209,4.06842A13.89055,13.89055,0,0,0,275.858,451.76888Z" transform="translate(-27.429 -38.4)" id="path18"></path><path class="cls-1" d="M99.73091,302.63088a13.14008,13.14008,0,1,1,9.2915-3.84864A13.14007,13.14007,0,0,1,99.73091,302.63088Z" transform="translate(-27.429 -38.4)" id="path19"></path><path class="cls-7" d="M99.73066,277.10024a12.39051,12.39051,0,1,1-8.76141,3.62909,12.3905,12.3905,0,0,1,8.76141-3.62909m0-1.5a13.89056,13.89056,0,1,0,9.82209,4.06845A13.89058,13.89058,0,0,0,99.73066,275.60024Z" transform="translate(-27.429 -38.4)" id="path20"></path><path class="cls-1" d="M275.85786,302.63088a13.14,13.14,0,1,1,9.292-3.84864A13.14,13.14,0,0,1,275.85786,302.63088Z" transform="translate(-27.429 -38.4)" id="path21"></path><path class="cls-7" d="M275.858,277.10024a12.39049,12.39049,0,1,1-8.76141,3.62909,12.39051,12.39051,0,0,1,8.76141-3.62909m0-1.5a13.89056,13.89056,0,1,0,9.82209,4.06845A13.89058,13.89058,0,0,0,275.858,275.60024Z" transform="translate(-27.429 -38.4)" id="path22"></path><path class="cls-1" d="M312.29927,390.72853a13.14,13.14,0,1,1,9.291-3.84863A13.14,13.14,0,0,1,312.29927,390.72853Z" transform="translate(-27.429 -38.4)" id="path23"></path><path class="cls-7" d="M312.29872,365.19774a12.39049,12.39049,0,1,1-8.76141,3.62909,12.39051,12.39051,0,0,1,8.76141-3.62909m0-1.5a13.89056,13.89056,0,1,0,9.82208,4.06845A13.8906,13.8906,0,0,0,312.29872,363.69774Z" transform="translate(-27.429 -38.4)" id="path24"></path><path class="cls-8" d="M170.72633,419.53963l-.85547-.77576-.13-51.72867s-.14-3.86-.13-10.1c.01-5.7.13-13.42.6-21.99,0-.07.01-.14.01-.21.18-3.37.41-6.87.71-10.43.05-.68.12-1.37.2-2.07a1.64029,1.64029,0,0,1,.02-.22c.38-3.94.97-8.14,1.69-12.48l.03-.21c.5-3.05,1.06-6.16,1.67-9.29.01-.07.03-.13995.04-.21,5.11-26.23,13.29-53.55,13.29-53.55s8.17,27.32,13.29,53.54l.03.18c.61,3.14,1.18,6.26,1.68,9.32.01.06.02.11.03.17.72,4.37,1.31,8.6,1.7,12.56l.03.27c.07.67.13,1.34.18,1.99.3,3.57.53,7.08.72,10.46,0,.09.01.17.01.26.46,8.54.58,16.22.59,21.91.01,6.24-.17,10.45-.17,10.45l-.04666,51.31409-.96771.85025" transform="translate(-27.429 -38.4)" id="path25"></path><path class="cls-8" d="M205.42848,419.38237c-5.68994.3-11.43588.46-17.47592.46q-9.075,0-17.64-.47" transform="translate(-27.429 -38.4)" id="path26"></path><path d="M187.92723,586.93752a10.37775,10.37775,0,0,1-7.31885-17.748,9.56258,9.56258,0,0,1,1.771-1.377l.0874-50.165c-12.73975.44238-35.168,1.957-35.39746,1.97266l-.80225.05468.023-13.07422.81494.07227c.12012.01074,12.12352,1.08008,23.13087,1.92871,9.1167.69531,14.95508,1.04785,17.35254,1.04785,2.79981,0,8.74463-.36914,17.66944-1.09668,11.11425-.90918,23.01855-2.06836,23.13672-2.0791l.82128-.08008.02344,13.06836-.79883-.05176c-.22558-.01367-22.28906-1.42382-35.10351-1.79589l-.07813,50.0498a10.11548,10.11548,0,0,1,2.02539,1.52149,10.40284,10.40284,0,0,1-7.35693,17.752Z" transform="translate(-27.429 -38.4)" style="stroke:#006db6;stroke-width:1.5px;fill:#fff" id="path27"></path><path class="cls-1" d="M964.238 262.053 921.766 196.931 921.693 196.82 910.049 196.82 910.049 282.334 921.806 282.334 921.806 217.397 964.151 282.222 964.223 282.334 975.879 282.334 975.879 196.82 964.238 196.82 964.238 262.053z" id="path28" style="fill:#000000"></path><path class="cls-1" d="M1073.99732 288.838c0-9.90483-2.70394-17.95413-8.03583-23.92473-5.33574-5.98647-12.42024-9.02179-21.05726-9.02179a28.03784 28.03784 0 0 0-14.99336 4.0713 27.555 27.555 0 0 0-10.25208 11.54585 37.71619 37.71619 0 0 0-3.67739 16.809v.75414c0 9.82162 2.70394 17.83533 8.03679 23.81844 5.33958 5.97925 12.4058 9.01121 21.00339 9.01121a28.33454 28.33454 0 0 0 15.2271-4.12517 27.25407 27.25407 0 0 0 10.1886-11.51459 38.01187 38.01187 0 0 0 3.56-16.65939Zm-11.30057-.5204c0 7.65587-1.61217 13.68563-4.79225 17.92286a16.26787 16.26787 0 0 1-25.736.08225c-3.19933-4.17134-4.82208-9.7971-4.82208-16.72047 0-7.81748 1.63333-13.89678 4.85382-18.0686a15.32945 15.32945 0 0 1 12.704-6.27408 15.53 15.53 0 0 1 12.91754 6.35873C1061.05669 275.84542 1062.69675 281.464 1062.69675 288.3176ZM1097.1631 275.69055c2.47885-5.872 7.24609-8.84912 14.17188-8.84912a33.0705 33.0705 0 0 1 5.26936.40015l.28569.04666V256.80337l-.13659-.06829a11.27918 11.27918 0 0 0-4.88749-.8436 17.0281 17.0281 0 0 0-14.8481 7.91847l-.15776-6.75071h-10.99756v63.67438h11.30057Z" transform="translate(-27.429 -38.4)" id="path29" style="fill:#000000"></path><path class="cls-1" d="M1182.103 218.659 1170.786 218.659 1158.807 266.292 1144.064 218.832 1144.012 218.659 1134.944 218.659 1120.429 265.312 1108.204 218.843 1108.155 218.659 1096.893 218.659 1115.331 282.156 1115.383 282.334 1124.497 282.334 1139.267 235.021 1154.447 282.334 1163.571 282.334 1182.012 218.974 1182.103 218.659z" id="path30" style="fill:#000000"></path><path class="cls-1" d="M1245.20648 321.90139c10.62434 0 18.70923-4.142 24.03054-12.31106l.12312-.1895-6.97772-5.42952-.151.19575a24.30159 24.30159 0 0 1-6.87192 6.12787 18.78251 18.78251 0 0 1-9.5797 2.30186 16.99651 16.99651 0 0 1-13.10031-5.67337c-3.37439-3.71491-5.18568-8.65482-5.38479-14.686h42.78882v-4.73695c0-10.10635-2.31629-17.97913-6.88442-23.39952-4.58256-5.44732-11.08991-8.20945-19.3412-8.20945a25.60243 25.60243 0 0 0-14.11609 4.21222A28.45451 28.45451 0 0 0 1219.61 271.7645a38.2999 38.2999 0 0 0-3.61295 16.90372v1.98539c0 9.45321 2.73087 17.10139 8.11567 22.73147C1229.508 319.03584 1236.605 321.90139 1245.20648 321.90139Zm-17.53666-39.03207c.71663-5.51562 2.52888-9.86539 5.38961-12.931a14.26921 14.26921 0 0 1 10.79845-4.67875 13.38205 13.38205 0 0 1 10.55893 4.43875c2.602 2.97857 4.07466 7.22253 4.37671 12.59963v.57138ZM1306.36305 321.90139c7.27111 0 13.1359-2.3793 17.44239-7.07392v4.78937c0 5.28331-1.45826 9.4258-4.33535 12.312-2.87516 2.89632-6.95271 4.36517-12.11915 4.36517-6.58623 0-12.24132-2.85545-16.80657-8.487l-.18564-.22846-5.92155 6.84114.10581.15631a23.32974 23.32974 0 0 0 10.09529 8.0921 32.94973 32.94973 0 0 0 13.4668 2.941c8.20609 0 14.83656-2.399 19.70577-7.13019 4.87594-4.73694 7.34806-11.301 7.34806-19.51V257.05924h-10.33769l-.50212 6.61941c-4.32573-5.16788-10.32807-7.78717-17.84928-7.78717a22.14157 22.14157 0 0 0-18.286 8.82123c-4.571 5.83689-6.88923 13.79673-6.88923 23.65828 0 10.29248 2.325 18.53752 6.90943 24.50524A21.91467 21.91467 0 0 0 1306.36305 321.90139Zm-13.715-32.29915c0-7.93628 1.4775-13.9997 4.39114-18.021a14.19432 14.19432 0 0 1 12.12685-6.02447c6.4631 0 11.3881 2.98193 14.63937 8.86308v28.72275c-3.13873 6.04082-8.10605 9.104-14.76634 9.104a14.02213 14.02213 0 0 1-12.05182-6.00235C1294.10827 302.24948 1292.64808 296.65066 1292.64808 289.60224ZM1358.40356 234.05218a6.28125 6.28125 0 0 0-4.94039 1.89786 6.683 6.683 0 0 0-1.666 4.60179 6.48823 6.48823 0 0 0 1.668 4.54072 6.40156 6.40156 0 0 0 4.93846 1.83148 6.50681 6.50681 0 0 0 4.96829-1.82956 6.41969 6.41969 0 0 0 1.70066-4.54264 6.6105 6.6105 0 0 0-1.69777-4.60276A6.38359 6.38359 0 0 0 1358.40356 234.05218Z" transform="translate(-27.429 -38.4)" id="path31" style="fill:#000000"></path><path class="cls-1" d="M1325.239 218.659H1336.54V282.33299999999997H1325.239z" id="path32" style="fill:#000000"></path><path class="cls-1" d="M1428.18081 305.71911V276.63275c-.16064-6.43521-2.35-11.55692-6.50735-15.22325-4.16605-3.66153-9.97505-5.518-17.26636-5.518a31.08041 31.08041 0 0 0-12.74632 2.59091 23.43665 23.43665 0 0 0-9.20455 7.05083 15.226 15.226 0 0 0-3.41576 9.29017v.24625h11.365v-.24625a8.38171 8.38171 0 0 1 3.80726-6.86278 15.55774 15.55774 0 0 1 9.546-2.87083c4.31515 0 7.61836 1.10476 9.8173 3.28349a11.97633 11.97633 0 0 1 3.30321 8.84961v4.71194H1406.6147c-9.07085 0-16.22076 1.85217-21.25157 5.50455-5.04043 3.67115-7.59624 8.89626-7.59624 15.53011a17.37 17.37 0 0 0 6.061 13.58318c4.01888 3.549 9.23149 5.34873 15.49355 5.34873a24.38018 24.38018 0 0 0 17.805-7.53516 21.37176 21.37176 0 0 0 1.4775 6.23128l.0683.13611H1430.399v-1.18075l-.0202-.09763C1428.92052 316.076 1428.18081 311.45452 1428.18081 305.71911Zm-17.77136 3.69375a18.81927 18.81927 0 0 1-9.5066 2.6 12.84189 12.84189 0 0 1-8.54661-2.80879 9.6139 9.6139 0 0 1-3.29936-7.753c0-7.54381 6.59681-11.36886 19.60766-11.36886h8.21474v12.66023A15.69221 15.69221 0 0 1 1410.40945 309.41286ZM1480.2319 268.7489c1.98539 2.12054 3.01368 5.46175 3.055 9.92888v42.05584h11.29V278.73934c-.10774-15.16073-6.98446-22.84786-20.43971-22.84786a23.28343 23.28343 0 0 0-18.70346 8.69811l-.34148-7.53035h-10.69552v63.67438h11.30056V275.528a18.83525 18.83525 0 0 1 6.07449-7.21291 15.46658 15.46658 0 0 1 9.0949-2.75829C1475.09624 265.55679 1478.24748 266.63077 1480.2319 268.7489ZM1565.0304 320.73362a41.53838 41.53838 0 0 0 20.17326-5.00051 33.05293 33.05293 0 0 0 13.36-13.98959 46.15841 46.15841 0 0 0 4.66624-21.19722v-5.42664a45.84109 45.84109 0 0 0-4.73069-20.899 33.52141 33.52141 0 0 0-13.261-14.0627 39.03457 39.03457 0 0 0-19.74329-4.938h-24.24119v85.51368h23.77659Zm-12.072-9.65521V244.88574h12.83193c8.21282.0731 14.64033 2.78714 19.10554 8.06661 4.47675 5.28475 6.74686 12.81077 6.74686 22.37027v4.96877c0 9.8322-2.40478 17.50347-7.147 22.80073-4.7355 5.29918-11.46409 7.98629-19.99915 7.98629ZM1666.28917 309.59033l.12312-.1895-6.97772-5.42952-.151.19575a24.30156 24.30156 0 0 1-6.87191 6.12787 18.78255 18.78255 0 0 1-9.57971 2.30186 16.99647 16.99647 0 0 1-13.1003-5.67337c-3.3744-3.71491-5.18568-8.65482-5.3848-14.686h42.78882v-4.73695c0-10.10635-2.31629-17.97913-6.88442-23.39952-4.58255-5.44732-11.0899-8.20945-19.3412-8.20945a25.60248 25.60248 0 0 0-14.11609 4.21222 28.45637 28.45637 0 0 0-10.13184 11.6608 38.2999 38.2999 0 0 0-3.61295 16.90372v1.98539c0 9.45321 2.73087 17.10139 8.11567 22.73147 5.39537 5.65076 12.49238 8.51631 21.09381 8.51631C1652.883 321.90139 1660.96786 317.75938 1666.28917 309.59033Zm-41.56719-26.721c.71662-5.51562 2.52887-9.86539 5.3896-12.931a14.26924 14.26924 0 0 1 10.79845-4.67875 13.38205 13.38205 0 0 1 10.55893 4.43875c2.602 2.97857 4.07467 7.22253 4.37671 12.59963v.57138ZM1696.52982 320.73362V265.90741h13.48892v-8.84817h-13.48892V250.6274c0-3.74569.94364-6.65356 2.80591-8.64472 1.84687-1.99068 4.51522-3.00021 7.931-3.00021a30.86364 30.86364 0 0 1 5.79361.52665l.27318.05242.60216-8.98379.01443-.20152-.19623-.05291a28.90585 28.90585 0 0 0-7.48562-.99558c-6.65548 0-11.8806 1.88968-15.533 5.61613-3.65335 3.739-5.506 9.08336-5.506 15.88505v6.23032h-9.97986v8.84817h9.97986v54.82621ZM1746.71961 321.90139c10.62434 0 18.70923-4.142 24.03054-12.31106l.12409-.1895-6.97869-5.42952-.151.19575a24.30142 24.30142 0 0 1-6.87191 6.12787 18.77762 18.77762 0 0 1-9.57971 2.30186 16.99647 16.99647 0 0 1-13.1003-5.67337c-3.3744-3.71491-5.18568-8.65482-5.3848-14.686h42.78979v-4.73695c0-10.10635-2.31629-17.97913-6.88442-23.39952-4.58352-5.44732-11.09087-8.20945-19.34217-8.20945a25.60248 25.60248 0 0 0-14.11609 4.21222 28.45159 28.45159 0 0 0-10.13088 11.6608 38.28391 38.28391 0 0 0-3.61391 16.90372v1.98539c0 9.45321 2.73088 17.10139 8.11567 22.73147C1731.02118 319.03584 1738.11818 321.90139 1746.71961 321.90139ZM1729.183 282.86932c.71759-5.51706 2.52983-9.86635 5.3896-12.931a14.26924 14.26924 0 0 1 10.79845-4.67875 13.37932 13.37932 0 0 1 10.55893 4.43875c2.602 2.97857 4.07467 7.22205 4.37767 12.59963v.57138ZM1823.27162 278.67778v42.05584h11.29V278.73934c-.10678-15.16073-6.9835-22.84786-20.43972-22.84786a23.28288 23.28288 0 0 0-18.70249 8.69811l-.34244-7.53035h-10.69552v63.67438H1795.682V275.528a18.852 18.852 0 0 1 6.07449-7.21291 15.47166 15.47166 0 0 1 9.09586-2.75829c4.22953 0 7.3798 1.074 9.36423 3.19211C1822.202 270.86944 1823.23026 274.21065 1823.27162 278.67778ZM1896.31937 311.052a19.91615 19.91615 0 0 0 3.78129-10.45841l.01347-.25924h-10.69841l-.0202.22413a12.158 12.158 0 0 1-4.70857 8.58989 15.365 15.365 0 0 1-9.94138 3.44846c-5.4656 0-9.72207-1.95316-12.6511-5.80563-2.94634-3.86641-4.44019-9.47437-4.44019-16.66853v-2.03829c0-7.38077 1.50443-13.09983 4.471-16.997 2.95308-3.86689 7.18069-5.82775 12.56645-5.82775a14.27034 14.27034 0 0 1 10.12992 3.8717 14.78625 14.78625 0 0 1 4.5739 9.91589l.01731.227h10.69937l-.01154-.25732a23.03763 23.03763 0 0 0-7.58662-16.69161c-4.71819-4.269-10.71476-6.43376-17.82234-6.43376a28.02635 28.02635 0 0 0-15.11071 4.00829 26.24563 26.24563 0 0 0-9.81729 11.26161 38.39758 38.39758 0 0 0-3.41 16.50885v1.81561c0 9.98227 2.58563 17.96375 7.68377 23.72225 5.09718 5.7686 12.06433 8.6933 20.70809 8.6933a26.94087 26.94087 0 0 0 12.28845-2.94586A24.90412 24.90412 0 0 0 1896.31937 311.052ZM1963.03581 308.59033l.12409-.1895-6.97869-4.42952-.151.19575a24.30142 24.30142 0 0 1-6.87191 6.12787c-2.61545 1.52752-5.83786 1.30186-9.57971 1.30186-5.27225 0-9.67974-.90892-13.1003-4.67337-3.3744-3.71491-5.18568-8.65482-5.3848-14.686h42.78979v-4.73695c0-10.10635-2.31629-17.97913-6.88442-23.39952-4.58256-5.44732-11.08991-8.20945-19.34217-8.20945a25.60248 25.60248 0 0 0-14.11609 4.21222 28.45159 28.45159 0 0 0-10.13088 11.6608 38.28391 38.28391 0 0 0-3.61391 16.90372v1.98539c0 9.45321 2.73087 17.10139 8.11567 22.73147 5.39538 5.65076 12.49238 7.51631 21.09381 7.51631C1949.62961 320.90139 1957.7145 316.75938 1963.03581 308.59033Zm-41.56719-25.721c.71759-5.51706 2.52983-9.86635 5.3896-12.931a14.26924 14.26924 0 0 1 10.79845-4.67875 13.37933 13.37933 0 0 1 10.55893 4.43875c2.602 2.97857 4.07467 7.22205 4.37767 12.59963v.57138ZM991.60643 401.57926a23.18008 23.18008 0 0 0 4.34689-13.97949c0-8.36385-2.63372-14.83224-7.82661-19.22434-5.177-4.37815-12.66793-6.59825-22.264-6.59825H937.47087v85.51368h11.76806V412.89137h19.56629l18.4524 34.39949h12.43274v-1.01049l-19.87459-35.89575A25.7653 25.7653 0 0 0 991.60643 401.57926ZM984.18574 387.568a14.46533 14.46533 0 0 1-4.85333 11.39772c-3.22915 2.8338-7.64337 4.2709-13.11907 4.2709H949.23893V371.443h16.909c5.83113.03126 10.34491 1.44575 13.41678 4.20548C982.63081 378.39232 984.18574 382.40254 984.18574 387.568ZM1034.38275 382.44872a25.60358 25.60358 0 0 0-14.11609 4.21174 28.32414 28.32414 0 0 0-10.13184 11.6608 38.27894 38.27894 0 0 0-3.61295 16.89362v1.996c0 9.44311 2.73087 17.09081 8.11567 22.731 5.39537 5.65124 12.49238 8.51679 21.09381 8.51679 10.62627 0 18.71115-4.14537 24.0315-12.32164l.12313-.1895-6.97869-5.42952-.151.19575a24.336 24.336 0 0 1-6.87191 6.138 18.78509 18.78509 0 0 1-9.57971 2.30234 16.99527 16.99527 0 0 1-13.1003-5.67385c-3.3744-3.71491-5.18568-8.65482-5.3848-14.68554h42.78882v-4.748c0-10.09913-2.31629-17.96807-6.88442-23.38846C1049.1414 385.21085 1042.634 382.44872 1034.38275 382.44872Zm-16.188 26.97784c.71662-5.51562 2.52887-9.86539 5.3896-12.93149a14.24116 14.24116 0 0 1 10.79845-4.67827 13.38424 13.38424 0 0 1 10.55989 4.43923c2.601 2.96654 4.07275 7.21051 4.37575 12.59915v.57138ZM1111.48305 414.65456a58.6716 58.6716 0 0 0-13.16861-4.3517c-5.33958-1.188-9.07469-2.45192-11.10049-3.75675a6.27627 6.27627 0 0 1-2.97616-5.6854 7.87919 7.87919 0 0 1 3.22626-6.52562c2.16912-1.67085 5.2232-2.51829 9.07662-2.51829a13.94132 13.94132 0 0 1 9.33153 3.15844 9.53854 9.53854 0 0 1 3.67163 7.45676v.24625h11.365V402.432a17.91288 17.91288 0 0 0-6.77764-14.37388c-4.4806-3.72213-10.39829-5.6094-17.59053-5.6094-6.83921 0-12.53855 1.82619-16.94123 5.42712-4.42095 3.60717-6.66221 8.09017-6.66221 13.32443a14.29156 14.29156 0 0 0 2.34707 8.208 18.93043 18.93043 0 0 0 7.21531 5.91962 55.05384 55.05384 0 0 0 13.08781 4.22569c5.40788 1.15526 9.244 2.54522 11.40349 4.13046a7.659 7.659 0 0 1 3.20125 6.60691 7.42255 7.42255 0 0 1-3.59564 6.42029c-2.4221 1.62083-5.68683 2.44278-9.70571 2.44278-4.35651 0-7.90982-1.05426-10.56085-3.13295a10.99218 10.99218 0 0 1-4.2584-8.43984l-.0125-.23326H1070.771v.24625a18.39515 18.39515 0 0 0 3.34553 10.5647 22.15809 22.15809 0 0 0 9.24111 7.591 32.17261 32.17261 0 0 0 13.53317 2.70875c7.22782 0 13.18977-1.73482 17.71942-5.15634a16.46685 16.46685 0 0 0 6.87191-13.77606 15.17725 15.17725 0 0 0-2.46442-8.74909A19.34086 19.34086 0 0 0 1111.48305 414.65456ZM1159.97506 382.44872a25.609 25.609 0 0 0-14.11705 4.21174 28.31809 28.31809 0 0 0-10.13088 11.6608 38.27477 38.27477 0 0 0-3.61391 16.89362v1.996c0 9.44215 2.73087 17.08984 8.11663 22.731 5.39537 5.65124 12.49238 8.51679 21.09285 8.51679 10.62723 0 18.71211-4.14537 24.0315-12.32164l.12312-.1895-6.97772-5.42952-.151.19575a24.336 24.336 0 0 1-6.87192 6.138 18.78626 18.78626 0 0 1-9.58066 2.30234 16.99467 16.99467 0 0 1-13.09934-5.67385c-3.3744-3.71347-5.18568-8.65338-5.38576-14.68554h42.78978v-4.748c0-10.09913-2.31629-17.96807-6.88442-23.38846C1174.73371 385.21085 1168.22636 382.44872 1159.97506 382.44872Zm-16.188 26.97784c.71662-5.51562 2.52887-9.86539 5.3896-12.93149a14.23821 14.23821 0 0 1 10.79845-4.67827A13.38085 13.38085 0 0 1 1170.534 396.256c2.601 2.96654 4.07371 7.21 4.37671 12.59915v.57138ZM1247.59389 432.26576V403.19c-.15968-6.43473-2.349-11.55644-6.50639-15.22277-4.15258-3.662-9.96254-5.5185-17.26732-5.5185a31.07237 31.07237 0 0 0-12.7444 2.59043 23.23865 23.23865 0 0 0-9.20552 7.05131 15.226 15.226 0 0 0-3.41575 9.29017v.24625h11.364v-.24625a8.38371 8.38371 0 0 1 3.80822-6.86326 15.55872 15.55872 0 0 1 9.546-2.88093c4.30745 0 7.61067 1.1086 9.81634 3.29407a11.96384 11.96384 0 0 1 3.30417 8.839v4.72252h-10.26458c-9.08528 0-16.23519 1.85168-21.25157 5.50407-5.04043 3.67066-7.59624 8.89578-7.59624 15.5301a17.40232 17.40232 0 0 0 6.061 13.58367c4.01984 3.549 9.23245 5.34873 15.49355 5.34873a24.38156 24.38156 0 0 0 17.805-7.53468 21.26877 21.26877 0 0 0 1.4775 6.23128l.0683.13563H1249.813v-1.18075l-.0202-.09715C1248.3336 442.62173 1247.59389 437.99637 1247.59389 432.26576Zm-17.7704 3.70434a18.81733 18.81733 0 0 1-9.5066 2.58947 12.845 12.845 0 0 1-8.54757-2.79773 9.64352 9.64352 0 0 1-3.2984-7.75351c0-7.551 6.5968-11.37944 19.60669-11.37944h8.21571V429.2997A15.701 15.701 0 0 1 1229.82349 435.9701ZM1290.81942 382.44872a17.04069 17.04069 0 0 0-14.84811 7.90837l-.15679-6.74061H1264.817v63.67438h11.30056V402.24779c2.47886-5.872 7.2461-8.84912 14.17092-8.84912a31.46189 31.46189 0 0 1 5.26744.40015l.28762.04858V383.35965l-.1366-.06782A11.29025 11.29025 0 0 0 1290.81942 382.44872ZM1345.18392 427.10461a12.17091 12.17091 0 0 1-4.70857 8.601 15.36765 15.36765 0 0 1-9.94235 3.44846c-5.4579 0-9.71341-1.95365-12.65013-5.80611-2.9473-3.86545-4.44116-9.47341-4.44116-16.668v-2.03829c0-7.39183 1.50444-13.11041 4.47194-16.997 2.95308-3.86689 7.18069-5.82775 12.56645-5.82775a14.268 14.268 0 0 1 10.129 3.8717 14.77986 14.77986 0 0 1 4.57487 9.91589l.01731.227h10.69937l-.01154-.25731a23.08412 23.08412 0 0 0-7.58758-16.70267c-4.72107-4.26176-10.71765-6.4227-17.82138-6.4227a28.02737 28.02737 0 0 0-15.11167 4.00829 26.1124 26.1124 0 0 0-9.81634 11.26161 38.326 38.326 0 0 0-3.41094 16.50885v1.81513c0 9.98179 2.58562 17.96327 7.68473 23.72225 5.09718 5.7686 12.06432 8.69378 20.70712 8.69378a26.93615 26.93615 0 0 0 12.28942-2.94635 24.90049 24.90049 0 0 0 9.28439-7.90308 19.92308 19.92308 0 0 0 3.78225-10.46948l.01346-.25923h-10.6984ZM1398.06322 382.44872a23.21978 23.21978 0 0 0-18.43989 8.38837V357.10565h-11.30057v90.18521h11.30057V402.08523a18.85842 18.85842 0 0 1 6.07448-7.22349 15.46653 15.46653 0 0 1 9.0949-2.75829c4.21992 0 7.37115 1.074 9.3652 3.19163 1.98539 2.13112 3.01367 5.47618 3.055 9.93946v42.05632h11.29V405.29658C1418.39616 390.13585 1411.51943 382.44872 1398.06322 382.44872Z" transform="translate(-27.429 -38.4)" id="path33" style="fill:#000000"></path><path class="cls-1" d="M1449.318 369.587 1486.159 369.587 1486.159 359.931 1449.318 358.931 1449.318 332.043 1491.531 333.043 1491.531 323.377 1437.614 323.377 1437.614 408.891 1492.115 408.891 1492.115 399.225 1449.318 399.225 1449.318 369.587z" id="path34" style="fill:#000000"></path><path class="cls-1" d="M1568.20369 414.65456a58.67149 58.67149 0 0 0-13.1686-4.3517c-5.34055-1.188-9.0747-2.45192-11.09953-3.75675a6.27455 6.27455 0 0 1-2.97712-5.6854c0-2.68037 1.086-5.87594 3.22626-7.52562 2.16911-1.67085 5.22319-2.51829 9.07662-2.51829a13.94134 13.94134 0 0 1 9.33153 3.15844 11.5755 11.5755 0 0 1 3.67258 8.45676v.24625h11.36406V402.432a19.916 19.916 0 0 0-6.77765-15.37388c-4.47963-3.72213-10.39733-5.6094-17.59052-5.6094-6.83921 0-12.53855 1.82619-16.94123 5.42712a18.5948 18.5948 0 0 0-6.66222 14.32443 14.29156 14.29156 0 0 0 2.34707 8.208 18.9406 18.9406 0 0 0 7.21532 5.91962 55.05374 55.05374 0 0 0 13.0878 4.22569c5.40788 1.15526 9.244 2.54522 11.40349 4.13046a7.659 7.659 0 0 1 3.20125 6.60691 7.42256 7.42256 0 0 1-3.59563 6.42029c-2.4221 1.62083-5.68684 2.44278-9.70572 2.44278-4.3565 0-7.90981-1.05426-10.56085-3.13295a10.9922 10.9922 0 0 1-4.25839-8.43984l-.01251-.23326h-11.28806v.24625a18.39509 18.39509 0 0 0 3.34554 10.5647 22.158 22.158 0 0 0 9.24111 7.591 32.17874 32.17874 0 0 0 13.53316 2.70875c7.22783 0 13.18977-1.73482 17.71942-5.15634a16.46683 16.46683 0 0 0 6.87192-13.77606 15.17718 15.17718 0 0 0-2.46443-8.74909A19.34086 19.34086 0 0 0 1568.20369 414.65456ZM1614.4102 438.79283c-2.44519 0-4.18818-.606-5.18184-1.80022a8.60156 8.60156 0 0 1-1.52559-5.54447V391.46465h11.80557v-8.84817h-11.80557V368.31724h-11.29v14.29924h-11.49872v8.84817h11.49872v39.9301c0 5.40836 1.25915 9.648 3.74185 12.60156 2.48462 2.96077 6.21974 4.46232 11.10241 4.46232a31.88638 31.88638 0 0 0 8.35615-1.16584l.1818-.04954V438.0334l-.29819.064A25.91411 25.91411 0 0 1 1614.4102 438.79283ZM1680.02332 432.26576V403.19c-.16064-6.43617-2.35-12.55788-6.50735-16.22277-4.15162-3.662-9.96159-5.5185-17.26636-5.5185a31.07237 31.07237 0 0 0-12.7444 2.59043 23.2438 23.2438 0 0 0-9.20648 7.05131 18.06258 18.06258 0 0 0-3.41479 10.29017v.24625H1642.248v-.24625a10.19043 10.19043 0 0 1 3.80822-7.86326 15.55872 15.55872 0 0 1 9.546-2.88093c4.30745 0 7.61067 1.1086 9.81633 3.29407 2.19221 2.18162 3.30418 6.15538 3.30418 9.839v4.72252h-10.26459c-9.08624 0-16.23614 1.85168-21.25156 5.50407-5.0414 3.67115-7.5972 8.89626-7.5972 15.5301a17.40232 17.40232 0 0 0 6.061 13.58367c4.01984 3.549 9.23245 5.34873 15.49355 5.34873a24.37706 24.37706 0 0 0 17.805-7.53516 21.28059 21.28059 0 0 0 1.47846 6.23176l.0683.13563h11.72669v-1.18075l-.0202-.09715C1680.763 442.62366 1680.02332 437.99877 1680.02332 432.26576Zm-11.30057-15.63687V429.2997a15.70343 15.70343 0 0 1-6.46984 6.6704 18.8173 18.8173 0 0 1-9.50659 2.58947 12.845 12.845 0 0 1-8.54757-2.79773 9.64319 9.64319 0 0 1-3.29937-7.75351c0-7.551 6.59681-11.37944 19.60766-11.37944ZM1725.34774 381.44872c-7.46156 0-13.44275 3.58466-17.79156 8.68473v-34.0278h-11.30634v91.18521h10.40791l.4925-6.90221c4.37094 5.35545 10.52912 8.07 18.31485 8.07a21.59184 21.59184 0 0 0 18.06474-8.88857c4.44982-5.8773 6.70647-13.7573 6.70647-23.42117v-.934c0-10.0876-2.22779-18.15325-6.62182-23.97283C1739.21277 385.40708 1733.06614 381.44872 1725.34774 381.44872Zm13.588 33.47951c0 7.96945-1.43421 14.01172-4.26416 17.958a13.87184 13.87184 0 0 1-11.89311 5.90663c-6.86037 0-11.9816-3.27339-15.22229-9.72832V401.85c3.055-6.46743 8.13683-9.74659 15.1059-9.74659 5.22031 0 9.27862 1.99068 12.06144 5.91625C1737.51884 401.96162 1738.93574 407.65038 1738.93574 414.92823Z" transform="translate(-27.429 -38.4)" id="path35" style="fill:#000000"></path><path class="cls-1" d="M1736.646 317.706H1747.947V408.891H1736.646zM1765.707 345.216H1777.008V408.89H1765.707z" id="path36" style="fill:#000000"></path><path class="cls-1" d="M1798.87068 359.60942a6.312 6.312 0 0 0-4.94135 1.88776 6.7197 6.7197 0 0 0-1.66411 4.60131c0 1.81513.5608 4.3465 1.667 5.5513a6.40154 6.40154 0 0 0 4.93846 1.83148 6.50681 6.50681 0 0 0 4.96829-1.82956c1.12929-1.20624 1.70163-3.73809 1.70163-5.55322a6.64393 6.64393 0 0 0-1.69971-4.60372A6.41213 6.41213 0 0 0 1798.87068 359.60942ZM1858.11786 414.65456a58.67177 58.67177 0 0 0-13.16861-4.3517c-5.34054-1.188-9.07469-2.45192-11.09952-3.75675a6.27456 6.27456 0 0 1-2.97713-5.6854 7.88169 7.88169 0 0 1 3.22626-6.52562c2.16912-1.67085 5.2232-2.51829 9.07662-2.51829a13.94132 13.94132 0 0 1 9.33153 3.15844 9.541 9.541 0 0 1 3.67259 7.45676v.24625h11.36405V402.432a17.91288 17.91288 0 0 0-6.77764-14.37388c-4.47964-3.72213-10.39733-5.6094-17.59053-5.6094-6.83921 0-12.53855 1.82619-16.94123 5.42712-4.42095 3.60717-6.66221 8.09017-6.66221 13.32443a14.29156 14.29156 0 0 0 2.34707 8.208 18.94048 18.94048 0 0 0 7.21531 5.91962 55.05384 55.05384 0 0 0 13.08781 4.22569c5.40788 1.15526 9.244 2.54522 11.40349 4.13046a7.659 7.659 0 0 1 3.20125 6.60691 7.42255 7.42255 0 0 1-3.59564 6.42029c-2.4221 1.62083-5.68683 2.44278-9.70571 2.44278-4.35651 0-7.90982-1.05426-10.56085-3.13295a10.99218 10.99218 0 0 1-4.2584-8.43984l-.0125-.23326h-11.28806v.24625a18.39507 18.39507 0 0 0 3.34553 10.5647 22.15809 22.15809 0 0 0 9.24111 7.591 32.17882 32.17882 0 0 0 13.53317 2.70875c7.22782 0 13.18977-1.73482 17.71942-5.15634a16.46685 16.46685 0 0 0 6.87191-13.77606 15.17725 15.17725 0 0 0-2.46442-8.74909A19.34093 19.34093 0 0 0 1858.11786 414.65456ZM1910.243 382.44872a23.21982 23.21982 0 0 0-18.4399 8.38837V357.10565h-11.30056v90.18521h11.30056V402.08523a18.85854 18.85854 0 0 1 6.07449-7.22349 15.46653 15.46653 0 0 1 9.0949-2.75829c4.21992 0 7.37115 1.074 9.36519 3.19163 1.9854 2.13112 3.01368 5.47618 3.055 9.93946v42.05632h11.29V405.29658C1930.576 390.13585 1923.69923 382.44872 1910.243 382.44872ZM2012.80326 382.44872a24.58266 24.58266 0 0 0-12.06337 2.83331 24.33354 24.33354 0 0 0-8.03775 7.08979c-3.27147-6.58478-9.35462-9.9231-18.08783-9.9231-7.66838 0-13.8987 2.62169-18.52839 7.79391l-.27126-6.62615h-10.70707v63.67438h11.30057V400.9646c2.56446-5.88018 7.375-8.86115 14.29885-8.86115 8.90733 0 13.2369 4.42721 13.2369 13.53461v41.6528h11.35443l-.001-42.14771a14.32572 14.32572 0 0 1 4.53831-9.50467 14.11153 14.11153 0 0 1 9.81441-3.535c4.7711 0 8.208 1.10572 10.21361 3.28638 2.00559 2.18258 3.02329 5.53389 3.02329 9.96158v41.93945h11.30057V404.70019C2033.95286 389.93529 2026.75871 382.44872 2012.80326 382.44872ZM2073.91462 382.44872a25.60358 25.60358 0 0 0-14.11609 4.21174 28.31816 28.31816 0 0 0-10.13088 11.6608 38.26289 38.26289 0 0 0-3.61391 16.89362v1.996c0 9.44311 2.73087 17.09081 8.11567 22.731 5.39538 5.65124 12.49238 8.51679 21.09381 8.51679 10.62627 0 18.71115-4.14537 24.0315-12.32164l.12313-.1895-6.97773-5.42952-.151.19575a24.32814 24.32814 0 0 1-6.87287 6.138 18.78016 18.78016 0 0 1-9.57971 2.30234 16.99527 16.99527 0 0 1-13.1003-5.67385c-3.37344-3.714-5.18472-8.65386-5.3848-14.68554h42.78979v-4.748c0-10.09913-2.31629-17.96807-6.88442-23.38846C2088.67423 385.21085 2082.16688 382.44872 2073.91462 382.44872Zm-16.18805 26.97784c.71759-5.51658 2.52983-9.86635 5.3896-12.93149a14.24116 14.24116 0 0 1 10.79845-4.67827 13.38152 13.38152 0 0 1 10.55989 4.43923c2.601 2.96751 4.07467 7.211 4.37671 12.59915v.57138ZM2140.6955 382.44872a23.2829 23.2829 0 0 0-18.70249 8.6981l-.34244-7.53034H2110.955v63.67438h11.30057V402.08523a18.86948 18.86948 0 0 1 6.07449-7.22349 15.47159 15.47159 0 0 1 9.09586-2.75829c4.21991 0 7.37018 1.074 9.36423 3.19163 1.98539 2.13112 3.01368 5.47618 3.055 9.93946v42.05632h11.29V405.29658C2161.02844 390.13585 2154.15172 382.44872 2140.6955 382.44872ZM2202.67932 438.09737a25.9321 25.9321 0 0 1-5.0866.69546c-2.44615 0-4.18914-.606-5.18279-1.80022a8.60539 8.60539 0 0 1-1.5256-5.54447V392.46465h11.80653v-8.84817h-11.80653V368.31724h-11.29v15.29924h-11.49776v8.84817h11.49776v38.9301c0 5.40836 1.25914 9.648 3.74184 12.60156 2.48559 2.96077 6.2207 4.46232 11.10241 4.46232a31.88782 31.88782 0 0 0 8.35711-1.16584l.1818-.04954V438.0334Z" transform="translate(-27.429 -38.4)" id="path37" style="fill:#000000"></path></svg> 